<svg width="1146" height="770" viewBox="0 0 1146 770" fill="none" xmlns="http://www.w3.org/2000/svg">
<path d="M473.069 306.315C464.641 304.784 456.077 313.075 453.941 324.833C451.803 336.592 456.903 347.367 465.333 348.898C473.76 350.428 482.327 342.139 484.463 330.379C486.601 318.62 481.499 307.848 473.069 306.315Z" fill="#F4F4E0"/>
<path d="M512.609 290.922C515.809 290.922 518.4 288.331 518.4 285.133C518.4 281.933 515.809 279.341 512.609 279.341C509.413 279.341 506.819 281.933 506.819 285.133C506.819 288.331 509.413 290.922 512.609 290.922Z" fill="#F4F4E0"/>
<path d="M1021.04 572.635L1014.16 580.195C977.897 620.144 917.199 687.015 823.554 687.015C738.718 687.015 682.844 647.992 668.274 636.543L750.059 566.853C756.837 573.404 761.571 577.418 764.549 578.82C773.472 583.024 797.225 592.513 828.179 593.295C828.428 593.312 828.585 593.512 828.847 593.494C829.013 593.477 829.096 593.305 829.254 593.273C846.385 593.593 865.572 591.354 885.824 583.856C936.105 565.237 977.969 520.552 1010.3 451.016C1015.88 456.832 1024.91 468.284 1023.89 480.646C1023.34 487.116 1026.26 493.5 1031.5 497.323C1039.09 502.847 1052.32 506.525 1072.33 492.768C1099.24 474.272 1119.29 463.954 1133.4 470.347C1115.58 485.304 1051.12 539.918 1021.04 572.635V572.635ZM729.719 533.664C697.742 500.593 674.19 476.904 662.77 473.183C662.729 473.164 662.723 473.112 662.681 473.094C662.646 473.081 662.611 473.109 662.578 473.096C662.481 473.066 662.347 472.975 662.251 472.949C652.182 470.072 627.691 466.635 606.333 463.973C605.981 462.926 605.279 462.044 604.405 461.17C603.701 460.285 602.644 459.76 601.587 459.23C599.474 458.353 597.008 458.353 594.905 459.23C593.848 459.76 592.79 460.285 592.085 461.17C591.775 461.479 591.64 461.846 591.401 462.164C583.809 461.276 577.413 460.568 573.468 460.14L580.608 361.863C583.201 361.777 587.224 361.784 592.773 362.033C611.003 362.687 622.379 350.248 625.893 337.394C629.243 325.118 625.936 309.188 610.987 301.258C602.542 296.774 594.346 295.735 586.579 298.139C577.874 300.847 571.991 307.315 568.924 311.543C527.269 285.789 525.949 249.51 526.515 239.059C530.895 237.722 535.33 236.776 539.755 236.962C565.943 238.13 632.775 285.245 637.491 325.718C642.276 366.742 640.068 400.241 640.042 400.575C639.905 402.576 641.141 404.416 643.049 405.051C643.66 405.257 704.41 425.791 712.226 457.511C717.434 478.662 705.784 496.008 705.663 496.18C704.615 497.71 704.65 499.746 705.742 501.249C706.84 502.76 708.757 503.439 710.544 502.889C712.124 502.41 749.892 491.97 795.1 533.381C810.828 547.778 819.893 572.554 822.877 584.248C796.389 582.609 776.171 574.566 768.295 570.864C763.518 568.614 746.335 550.848 729.719 533.664V533.664ZM465.552 583.614C421.942 577.384 390.506 560.546 372.129 533.586C348.436 498.829 353.508 456.974 355.503 445.445C368.084 444.686 385.984 445.409 401.518 446.409C401.942 447.229 402.405 448.038 403.11 448.678C403.814 449.555 404.871 450.259 405.927 450.612C406.984 451.136 408.214 451.316 409.27 451.316C410.508 451.316 411.555 451.136 412.612 450.612C413.668 450.259 414.726 449.555 415.602 448.678C415.901 448.378 416.079 447.88 416.351 447.48C426.325 448.277 433.288 448.975 433.48 448.996C435.199 449.159 436.813 448.352 437.69 446.899L466.773 398.779C468 396.744 467.399 394.104 465.406 392.817C465.122 392.63 437.432 374.285 440.741 346.063C444.212 316.43 468.138 286.052 468.379 285.752C468.596 285.474 468.52 285.118 468.663 284.81C468.878 284.346 469.048 283.882 469.093 283.385C469.141 282.82 469.028 282.268 468.851 281.709C468.749 281.395 468.89 281.064 468.714 280.767C468.596 280.571 468.346 280.556 468.203 280.382C468.055 280.191 468.081 279.922 467.898 279.754C466.137 278.148 461.6 272.984 461.693 268.449C461.721 267.22 462.038 265.338 464.555 263.208C466.762 261.343 468.739 260.554 470.722 260.921C474.177 261.489 477.15 265.306 478.009 266.731C478.731 267.934 479.993 268.723 481.393 268.853C482.786 269.007 484.169 268.431 485.097 267.383C485.302 267.148 499.856 251.127 517.772 242.443C518.044 258.294 523.688 295.879 568.141 321.311C569.172 321.904 570.41 322.041 571.551 321.715C572.703 321.38 573.666 320.589 574.224 319.541C574.277 319.439 579.619 309.489 589.249 306.517C594.681 304.85 600.591 305.7 606.863 309.027C618.248 315.065 619.655 326.835 617.404 335.075C615.006 343.863 607.078 353.828 593.168 353.254C581.673 352.711 576.27 353.263 576.045 353.297C573.923 353.511 572.266 355.221 572.111 357.352L564.387 463.739C564.215 466.11 565.959 468.182 568.313 468.429C568.567 468.457 577.719 469.428 590.183 470.887C590.698 471.923 591.223 472.792 592.085 473.663C592.79 474.367 593.848 475.072 594.905 475.594C595.952 475.947 597.189 476.128 598.245 476.128C599.474 476.128 600.531 475.947 601.587 475.594C602.644 475.072 603.701 474.367 604.405 473.663C604.702 473.363 604.827 473.004 605.074 472.687C623.15 474.937 643.356 477.726 654.799 480.194C643.952 502.58 588.814 601.139 465.552 583.614V583.614ZM381.141 378.435C390.787 345.499 426.659 315.261 448.925 299.092C441.823 311.31 433.99 328.035 431.994 345.032C428.797 372.353 448.842 391.14 457.157 397.671L431.6 439.974C428.618 439.694 423.457 439.223 417.072 438.711C416.689 437.835 416.191 436.947 415.602 436.358C414.726 435.481 413.668 434.777 412.612 434.425C410.508 433.54 408.041 433.54 405.927 434.425C404.871 434.777 403.814 435.481 403.11 436.358C402.709 436.72 402.517 437.219 402.205 437.646C394.405 437.142 386.126 436.726 377.991 436.505C375.381 423.444 373.909 403.148 381.141 378.435V378.435ZM255.238 574.46C220.683 577.694 145.759 579.54 86.9393 544.806C8.67208 498.576 6.76416 390.249 9.5737 345.823C11.55 314.438 14.3159 238.937 15.0546 218.396C22.5467 221.333 32.8571 230.415 33.209 240.183C33.2773 242.107 33.3035 244.367 33.3283 246.867C33.5188 264.428 33.8023 290.95 48.3881 300.108C52.9587 302.977 60.9074 304.653 72.8058 296.276C82.4545 289.488 95.6762 289.591 105.805 296.07C96.3379 306.081 72.195 335.59 69.1208 379.207C67.4616 402.844 78.4336 428.085 99.2332 448.455C125.669 474.349 162.784 487.847 198.592 484.598C208.317 483.708 219.37 481.508 230.789 478.885C236.768 516.987 250.365 559.818 255.238 574.46V574.46ZM1143.63 466.437C1123.13 449.737 1094.7 466.719 1067.35 485.517C1054.84 494.118 1044.24 495.725 1036.69 490.209C1033.91 488.19 1032.37 484.805 1032.65 481.367C1034.49 459.048 1012.56 440.937 1011.62 440.181C1010.56 439.323 1009.16 439.013 1007.82 439.313C1006.5 439.631 1005.38 440.543 1004.83 441.788C973.17 512.322 932.092 557.343 882.772 575.599C864.666 582.303 847.519 584.459 832.002 584.434C829.282 572.209 819.576 543.855 801.045 526.884C764.944 493.817 732.614 491.6 717.296 492.889C720.837 484.668 724.616 471.058 720.767 455.414C712.828 423.187 662.398 402.732 648.994 397.825C649.433 388.204 650.232 359.001 646.237 324.703C640.987 279.703 569.327 229.47 540.151 228.171C533.218 227.908 526.369 229.495 519.84 231.973C519.824 231.977 519.808 231.986 519.792 231.991C502.959 238.393 488.507 251.267 482.074 257.769C479.796 255.449 476.463 252.974 472.227 252.253C469.066 251.686 464.178 252.004 458.886 256.489C455.044 259.728 452.973 263.817 452.896 268.31C452.798 273.826 455.648 278.698 458.2 282.019C441.791 292.491 385.892 330.914 372.704 375.961C365.27 401.329 366.49 422.277 369.078 436.359C362.588 436.329 356.457 436.451 351.442 436.9C339.773 437.931 318.793 444.4 294.49 451.892C261.867 461.961 224.89 473.362 197.785 475.835C164.597 478.894 130.007 466.283 105.385 442.175C86.4318 423.609 76.4137 400.884 77.8999 379.827C81.3885 330.212 115.102 299.196 115.445 298.888C116.373 298.045 116.906 296.852 116.898 295.597C116.887 294.342 116.348 293.148 115.411 292.324C101.974 280.476 81.9208 279.128 67.7364 289.077C61.3713 293.561 56.4313 294.799 53.0721 292.658C42.548 286.052 42.2906 261.464 42.1262 246.772C42.1015 244.197 42.0753 241.858 42.0055 239.873C41.3948 223.145 22.4696 208.773 10.9043 208.609C8.34487 208.731 6.53148 210.465 6.44568 212.855C6.41369 213.815 3.07044 309.078 0.79314 345.272C-2.11965 391.314 0.0122087 503.672 82.4705 552.385C142.791 588.005 217.123 587.171 258.241 583.022C261.859 591.999 273.768 616.382 300.882 631.055L325.916 745.627C326.364 747.693 328.185 749.094 330.203 749.094C330.521 749.094 330.83 749.054 331.148 748.987C333.529 748.481 335.031 746.134 334.507 743.761L309.034 627.181C308.759 625.893 307.916 624.802 306.741 624.2C275.673 608.305 265.476 577.265 265.373 576.955C265.364 576.929 265.335 576.918 265.328 576.894C265.319 576.87 265.338 576.849 265.331 576.827C265.139 576.284 246.48 522.74 239.379 476.862C258.401 472.099 278.376 466.073 297.083 460.303C317.348 454.054 334.851 448.743 346.361 446.651C343.963 462.195 340.737 503.08 364.809 538.467C384.63 567.599 418.101 585.72 464.315 592.327C474.787 593.82 484.789 594.517 494.341 594.517C603.742 594.517 653.348 503.637 663.161 483.098C675.376 490.181 702.764 518.436 723.396 539.773C731.547 548.206 738.049 554.85 743.809 560.616L659.329 632.605C650.985 634.903 598.164 651.734 569.386 716.655C563.142 730.747 557.703 746.507 553.218 763.521C552.6 765.867 554.001 768.267 556.354 768.894C556.723 768.987 557.101 769.026 557.472 769.026C559.422 769.026 561.208 767.721 561.722 765.747C566.088 749.2 571.373 733.881 577.428 720.227C603.04 662.44 649.88 644.795 660.344 641.493C671.521 650.902 729.848 695.814 823.554 695.814C921.092 695.814 983.422 627.138 1020.68 586.105L1027.51 578.597C1062.05 541.035 1142.85 473.903 1143.66 473.232C1144.68 472.39 1145.26 471.144 1145.25 469.829C1145.25 468.508 1144.65 467.27 1143.63 466.437" fill="#F4F4E0"/>
<path d="M513.431 519.934C508.68 520.81 505.338 525.391 506.224 530.141C506.928 534.36 510.621 537.529 515.022 537.529C515.374 537.529 515.897 537.529 516.43 537.357C521.172 536.473 524.343 532.076 523.638 527.323C522.761 522.401 518.183 519.23 513.431 519.934" fill="#F4F4E0"/>
<path d="M465.046 516.241C460.294 514.66 455.371 517.298 453.962 521.867C452.382 526.619 455.02 531.551 459.59 532.96C460.473 533.312 461.351 533.483 462.235 533.483C466.102 533.483 469.442 531.018 470.68 527.323C472.089 522.753 469.624 517.648 465.046 516.241" fill="#F4F4E0"/>
<path d="M415.782 486.153C411.555 488.792 410.327 494.247 412.964 498.294C414.553 500.931 417.543 502.522 420.353 502.522C421.942 502.522 423.703 501.988 425.105 501.111C429.151 498.466 430.388 493.19 427.922 488.973C425.284 484.926 419.828 483.516 415.782 486.153" fill="#F4F4E0"/>
<path d="M557.773 500.225C553.906 503.215 553.199 508.853 556.191 512.718C557.773 514.831 560.418 516.062 563.055 516.062C564.989 516.062 566.921 515.535 568.511 514.308C572.378 511.317 573.081 505.862 570.091 501.988C567.102 498.123 561.645 497.419 557.773 500.225" fill="#F4F4E0"/>
<path d="M601.806 368.631C597.694 368.631 594.359 371.965 594.359 376.081C594.359 380.195 597.694 383.529 601.806 383.529C605.923 383.529 609.259 380.195 609.259 376.081C609.259 371.965 605.923 368.631 601.806 368.631Z" fill="#F4F4E0"/>
<path d="M314.652 211.35C326.982 211.35 337.016 221.386 337.016 233.713C337.016 246.041 326.982 256.078 314.652 256.078C302.324 256.078 292.29 246.041 292.29 233.713C292.29 221.386 302.324 211.35 314.652 211.35ZM314.652 264.874C331.819 264.874 345.781 250.924 345.808 233.761C345.81 233.734 345.839 233.718 345.839 233.688V155.679C347.507 157.633 349.271 159.516 351.029 161.373C361.441 172.38 372.215 183.755 362.318 212.269C361.527 214.564 362.74 217.073 365.033 217.871C365.514 218.032 365.996 218.112 366.477 218.112C368.298 218.112 369.999 216.969 370.635 215.156C382.277 181.59 368.495 167.027 357.42 155.325C350.952 148.486 345.839 143.091 345.839 135.032C345.839 132.602 343.873 130.634 341.441 130.634C339.01 130.634 337.042 132.602 337.042 135.032V212.131C331.371 206.25 323.45 202.552 314.652 202.552C297.47 202.552 283.492 216.53 283.492 233.713C283.492 250.896 297.47 264.874 314.652 264.874Z" fill="#F4F4E0"/>
<path d="M152.542 113.666C164.871 113.666 174.906 123.7 174.906 136.029C174.906 148.358 164.871 158.394 152.542 158.394C140.214 158.394 130.179 148.358 130.179 136.029C130.179 123.7 140.214 113.666 152.542 113.666ZM237.081 125.752C224.752 125.752 214.718 115.72 214.718 103.391C214.718 91.0622 224.752 81.028 237.081 81.028C249.41 81.028 259.444 91.0622 259.444 103.391C259.444 115.72 249.41 125.752 237.081 125.752ZM152.542 167.19C169.709 167.19 183.671 153.241 183.698 136.079C183.7 136.05 183.729 136.032 183.729 136.005V40.3726L259.47 11.1284V81.809C253.799 75.9267 245.879 72.2301 237.081 72.2301C219.899 72.2301 205.92 86.208 205.92 103.391C205.92 120.575 219.899 134.552 237.081 134.552C254.248 134.552 268.21 120.602 268.236 103.439C268.238 103.41 268.268 103.394 268.268 103.365V4.71097C268.268 3.25821 267.555 1.90133 266.36 1.08552C265.157 0.252252 263.629 0.0719918 262.288 0.604234L177.749 33.2513C176.049 33.913 174.931 35.5359 174.931 37.3581V114.447C169.261 108.566 161.34 104.868 152.542 104.868C135.359 104.868 121.382 118.846 121.382 136.029C121.382 153.212 135.359 167.19 152.542 167.19Z" fill="#F4F4E0"/>
<path d="M436.427 225.981C436.599 225.981 436.762 225.974 436.934 225.956C439.348 225.682 441.082 223.499 440.809 221.085L422.543 60.9918C422.261 58.5706 420.078 56.8677 417.673 57.1193C415.257 57.3927 413.522 59.5755 413.798 61.9895L432.063 222.081C432.321 224.322 434.227 225.981 436.427 225.981" fill="#F4F4E0"/>
<path d="M341.441 327.782C343.374 327.782 345.144 326.499 345.676 324.551C346.33 322.214 344.954 319.791 342.61 319.138L153.711 266.936C151.409 266.301 148.941 267.676 148.307 270.012C147.654 272.349 149.028 274.771 151.374 275.424L340.272 327.626C340.659 327.73 341.053 327.782 341.441 327.782" fill="#F4F4E0"/>
<path d="M226.049 339.868C223.912 340.151 221.582 341.673 221.479 344.095C221.384 346.518 223.275 348.564 225.708 348.666L335.332 353.012C335.393 353.012 335.444 353.012 335.504 353.012C337.858 353.012 339.808 351.157 339.903 348.786C339.997 346.362 338.107 344.319 335.677 344.216L226.049 339.868Z" fill="#F4F4E0"/>
</svg>

