<svg viewBox="0 0 1044 972" xmlns="http://www.w3.org/2000/svg">
<path d="M498.353 230.523C492.005 229.37 485.552 235.617 483.942 244.475C482.333 253.331 486.175 261.449 492.525 262.602C498.874 263.755 505.326 257.511 506.936 248.651C508.546 239.794 504.704 231.678 498.353 230.523Z" />
<path d="M528.14 218.929C530.549 218.929 532.502 216.976 532.502 214.566C532.502 212.157 530.549 210.205 528.14 210.205C525.73 210.205 523.777 212.157 523.777 214.566C523.777 216.976 525.73 218.929 528.14 218.929Z" />
<path d="M911.146 431.145L905.96 436.841C878.641 466.933 832.921 517.313 762.377 517.313C698.469 517.313 656.38 487.913 645.405 479.288L707.014 426.79C712.119 431.725 715.684 434.747 717.928 435.804C724.649 438.972 742.543 446.119 765.863 446.71C766.049 446.723 766.168 446.871 766.363 446.858C766.488 446.846 766.551 446.718 766.671 446.692C779.575 446.934 794.028 445.247 809.281 439.598C847.161 425.573 878.694 391.912 903.042 339.527C907.255 343.908 914.069 352.536 913.298 361.85C912.877 366.723 915.087 371.531 919.028 374.412C924.728 378.572 934.704 381.343 949.77 370.981C970.056 357.047 985.166 349.274 995.781 354.089C982.359 365.356 933.803 406.499 911.146 431.145V431.145ZM691.691 401.789C667.602 376.877 649.86 359.031 641.257 356.227C641.227 356.212 641.221 356.175 641.189 356.161C641.164 356.15 641.138 356.172 641.112 356.161C641.039 356.14 640.939 356.071 640.866 356.05C633.279 353.884 614.83 351.294 598.743 349.289C598.477 348.501 597.949 347.836 597.291 347.179C596.76 346.511 595.964 346.117 595.167 345.714C593.576 345.054 591.718 345.054 590.131 345.714C589.337 346.117 588.542 346.511 588.01 347.179C587.776 347.412 587.675 347.686 587.495 347.928C581.774 347.257 576.958 346.724 573.985 346.401L579.364 272.368C581.319 272.303 584.347 272.31 588.527 272.498C602.261 272.989 610.829 263.618 613.477 253.936C616 244.687 613.509 232.689 602.248 226.715C595.886 223.337 589.711 222.553 583.861 224.366C577.305 226.405 572.871 231.278 570.562 234.463C539.183 215.061 538.188 187.733 538.614 179.86C541.914 178.852 545.254 178.14 548.589 178.278C568.315 179.158 618.662 214.652 622.214 245.141C625.819 276.045 624.156 301.278 624.135 301.531C624.034 303.039 624.964 304.424 626.401 304.903C626.861 305.059 672.625 320.526 678.513 344.422C682.436 360.354 673.66 373.423 673.57 373.55C672.78 374.703 672.805 376.237 673.626 377.37C674.455 378.508 675.898 379.019 677.245 378.604C678.436 378.244 706.886 370.379 740.942 401.574C752.79 412.421 759.62 431.086 761.868 439.894C741.915 438.658 726.682 432.601 720.749 429.812C717.151 428.117 704.206 414.733 691.691 401.789V401.789ZM492.69 439.415C459.838 434.723 436.158 422.04 422.315 401.731C404.466 375.546 408.288 344.016 409.79 335.331C419.269 334.76 432.752 335.304 444.453 336.057C444.773 336.675 445.122 337.284 445.652 337.767C446.182 338.427 446.979 338.958 447.774 339.223C448.571 339.618 449.497 339.754 450.291 339.754C451.225 339.754 452.015 339.618 452.81 339.223C453.607 338.958 454.402 338.427 455.063 337.767C455.288 337.542 455.422 337.167 455.627 336.866C463.139 337.465 468.385 337.99 468.53 338.007C469.826 338.131 471.042 337.521 471.703 336.428L493.609 300.179C494.536 298.644 494.084 296.657 492.58 295.687C492.366 295.544 471.508 281.726 473.999 260.467C476.614 238.145 494.639 215.26 494.821 215.033C494.984 214.825 494.927 214.556 495.035 214.323C495.197 213.974 495.324 213.627 495.359 213.25C495.394 212.824 495.311 212.41 495.174 211.989C495.1 211.752 495.205 211.502 495.072 211.28C494.984 211.128 494.795 211.12 494.689 210.989C494.577 210.845 494.595 210.643 494.457 210.516C493.131 209.305 489.714 205.416 489.785 201.999C489.804 201.073 490.044 199.656 491.94 198.051C493.602 196.646 495.091 196.05 496.586 196.329C499.188 196.757 501.427 199.629 502.074 200.705C502.618 201.611 503.569 202.207 504.625 202.303C505.674 202.419 506.715 201.987 507.414 201.196C507.568 201.02 518.532 188.949 532.027 182.408C532.233 194.35 536.484 222.662 569.972 241.821C570.75 242.268 571.68 242.371 572.541 242.125C573.409 241.873 574.134 241.277 574.555 240.488C574.593 240.409 578.618 232.916 585.875 230.676C589.964 229.421 594.417 230.061 599.142 232.567C607.717 237.115 608.779 245.982 607.083 252.188C605.277 258.809 599.303 266.317 588.826 265.884C580.166 265.475 576.094 265.89 575.927 265.916C574.328 266.077 573.078 267.364 572.963 268.97L567.145 349.113C567.014 350.9 568.328 352.459 570.101 352.645C570.294 352.667 577.186 353.399 586.576 354.498C586.964 355.279 587.36 355.932 588.01 356.588C588.542 357.118 589.337 357.649 590.131 358.045C590.923 358.309 591.855 358.445 592.65 358.445C593.576 358.445 594.372 358.309 595.167 358.045C595.964 357.649 596.76 357.118 597.291 356.588C597.513 356.364 597.608 356.092 597.794 355.853C611.411 357.547 626.632 359.65 635.253 361.509C627.081 378.372 585.545 452.617 492.69 439.415V439.415ZM429.104 284.853C436.37 260.041 463.392 237.264 480.165 225.083C474.817 234.288 468.915 246.885 467.41 259.689C465.004 280.271 480.103 294.426 486.367 299.344L467.114 331.212C464.868 330.999 460.98 330.644 456.171 330.259C455.881 329.599 455.506 328.93 455.063 328.488C454.402 327.826 453.607 327.295 452.81 327.031C451.225 326.363 449.368 326.363 447.774 327.031C446.979 327.295 446.182 327.826 445.652 328.488C445.348 328.76 445.206 329.135 444.97 329.458C439.095 329.077 432.858 328.766 426.73 328.598C424.764 318.759 423.656 303.47 429.104 284.853ZM334.26 432.519C308.228 434.957 251.788 436.347 207.478 410.183C148.517 375.357 147.082 293.751 149.198 260.285C150.686 236.644 152.769 179.768 153.326 164.293C158.97 166.506 166.736 173.348 167.002 180.706C167.054 182.156 167.073 183.858 167.092 185.741C167.235 198.97 167.448 218.949 178.438 225.848C181.88 228.009 187.868 229.271 196.831 222.961C204.099 217.848 214.06 217.926 221.689 222.806C214.558 230.346 196.371 252.577 194.055 285.434C192.805 303.24 201.07 322.254 216.739 337.6C236.653 357.104 264.612 367.273 291.587 364.826C298.912 364.157 307.24 362.498 315.841 360.521C320.346 389.225 330.589 421.489 334.26 432.519V432.519ZM1003.49 351.144C988.059 338.563 966.624 351.358 946.033 365.519C936.609 371.998 928.611 373.209 922.94 369.053C920.846 367.532 919.682 364.983 919.9 362.393C921.282 345.579 904.748 331.936 904.054 331.366C903.254 330.72 902.201 330.486 901.201 330.713C900.187 330.953 899.361 331.638 898.934 332.577C875.081 385.711 844.148 419.625 806.988 433.377C793.348 438.428 780.431 440.052 768.741 440.036C766.692 430.825 759.38 409.464 745.421 396.683C718.224 371.771 693.872 370.102 682.331 371.073C684.998 364.878 687.846 354.627 684.946 342.842C678.966 318.566 640.977 303.156 630.88 299.46C631.209 292.211 631.812 270.213 628.803 244.378C624.848 210.477 570.866 172.635 548.886 171.658C543.665 171.459 538.505 172.654 533.586 174.52C533.574 174.526 533.563 174.53 533.551 174.536C520.869 179.357 509.982 189.055 505.136 193.954C503.421 192.206 500.91 190.342 497.719 189.798C495.337 189.372 491.655 189.612 487.668 192.989C484.777 195.43 483.216 198.51 483.158 201.896C483.082 206.05 485.229 209.721 487.153 212.222C474.792 220.111 432.682 249.054 422.749 282.988C417.148 302.1 418.066 317.878 420.016 328.488C415.127 328.465 410.51 328.558 406.73 328.895C397.941 329.672 382.137 334.545 363.827 340.187C339.253 347.774 311.399 356.361 290.979 358.225C265.977 360.529 239.922 351.028 221.372 332.868C207.095 318.883 199.55 301.764 200.67 285.901C203.296 248.525 228.693 225.16 228.951 224.929C229.651 224.295 230.052 223.396 230.045 222.45C230.039 221.504 229.631 220.606 228.925 219.985C218.802 211.06 203.698 210.044 193.012 217.539C188.217 220.915 184.496 221.849 181.966 220.238C174.037 215.26 173.843 196.738 173.72 185.671C173.7 183.728 173.681 181.969 173.629 180.472C173.169 167.871 158.912 157.045 150.2 156.921C148.272 157.011 146.908 158.32 146.842 160.119C146.816 160.843 144.297 232.603 142.583 259.872C140.39 294.554 141.994 379.195 204.112 415.89C249.552 442.724 305.546 442.095 336.521 438.969C339.246 445.732 348.217 464.101 368.643 475.154L387.501 561.464C387.839 563.018 389.211 564.073 390.733 564.073C390.971 564.073 391.204 564.046 391.442 563.995C393.235 563.606 394.37 561.84 393.974 560.054L374.784 472.235C374.578 471.265 373.942 470.442 373.057 469.989C349.654 458.016 341.973 434.632 341.893 434.401C341.887 434.379 341.865 434.372 341.858 434.353C341.854 434.337 341.867 434.321 341.861 434.304C341.715 433.895 327.662 393.558 322.312 358.999C336.642 355.41 351.69 350.871 365.781 346.523C381.046 341.817 394.233 337.817 402.903 336.239C401.097 347.948 398.665 378.747 416.799 405.406C431.731 427.351 456.946 441.002 491.758 445.98C499.647 447.105 507.182 447.629 514.377 447.629C596.79 447.629 634.161 379.167 641.552 363.697C650.753 369.031 671.386 390.318 686.927 406.39C693.068 412.742 697.966 417.747 702.305 422.09L638.666 476.322C632.379 478.051 592.588 490.732 570.911 539.641C566.207 550.255 562.109 562.125 558.731 574.939C558.264 576.706 559.318 578.518 561.094 578.985C561.371 579.062 561.656 579.094 561.934 579.094C563.403 579.094 564.75 578.109 565.136 576.622C568.424 564.156 572.406 552.617 576.968 542.326C596.261 498.797 631.546 485.504 639.429 483.018C647.849 490.105 691.788 523.939 762.377 523.939C835.854 523.939 882.814 472.203 910.87 441.293L916.032 435.637C942.033 407.341 1002.91 356.769 1003.52 356.265C1004.27 355.631 1004.72 354.691 1004.72 353.703C1004.71 352.705 1004.27 351.773 1003.49 351.144" />
<path d="M528.758 391.447C525.18 392.107 522.663 395.556 523.329 399.134C523.86 402.312 526.642 404.702 529.956 404.702C530.221 404.702 530.616 404.702 531.018 404.572C534.591 403.905 536.978 400.592 536.448 397.012C535.787 393.304 532.338 390.916 528.758 391.447" />
<path d="M492.309 388.662C488.731 387.472 485.021 389.46 483.961 392.902C482.77 396.481 484.756 400.195 488.198 401.258C488.866 401.523 489.526 401.652 490.192 401.652C493.105 401.652 495.623 399.795 496.554 397.012C497.616 393.568 495.759 389.725 492.309 388.662" />
<path d="M455.198 365.999C452.015 367.986 451.09 372.095 453.076 375.143C454.273 377.13 456.526 378.328 458.641 378.328C459.838 378.328 461.166 377.927 462.22 377.267C465.27 375.273 466.2 371.298 464.345 368.121C462.355 365.073 458.247 364.011 455.198 365.999" />
<path d="M562.16 376.599C559.248 378.852 558.717 383.096 560.969 386.011C562.16 387.602 564.153 388.528 566.141 388.528C567.597 388.528 569.053 388.131 570.251 387.208C573.162 384.955 573.693 380.844 571.442 377.927C569.189 375.014 565.08 374.483 562.16 376.599" />
<path d="M595.333 277.467C592.234 277.467 589.721 279.978 589.721 283.079C589.721 286.178 592.234 288.69 595.333 288.69C598.433 288.69 600.946 286.178 600.946 283.079C600.946 279.978 598.433 277.467 595.333 277.467Z" />
<path d="M379.017 158.986C388.304 158.986 395.864 166.545 395.864 175.832C395.864 185.12 388.304 192.68 379.017 192.68C369.729 192.68 362.17 185.12 362.17 175.832C362.17 166.545 369.729 158.986 379.017 158.986ZM379.017 199.307C391.95 199.307 402.465 188.797 402.487 175.87C402.487 175.848 402.51 175.835 402.51 175.813V117.048C403.765 118.52 405.094 119.938 406.419 121.338C414.265 129.629 422.379 138.198 414.925 159.678C414.329 161.406 415.24 163.296 416.968 163.899C417.33 164.021 417.694 164.08 418.056 164.08C419.427 164.08 420.71 163.218 421.188 161.852C429.959 136.568 419.577 125.597 411.234 116.782C406.361 111.631 402.51 107.567 402.51 101.495C402.51 99.6645 401.028 98.1826 399.196 98.1826C397.365 98.1826 395.882 99.6645 395.882 101.495V159.574C391.611 155.144 385.644 152.358 379.017 152.358C366.073 152.358 355.544 162.889 355.544 175.832C355.544 188.776 366.073 199.307 379.017 199.307" />
<path d="M256.898 85.3958C266.185 85.3958 273.744 92.9577 273.744 102.246C273.744 111.534 266.185 119.093 256.898 119.093C247.61 119.093 240.051 111.534 240.051 102.246C240.051 92.9577 247.61 85.3958 256.898 85.3958ZM320.581 94.5137C311.295 94.5137 303.736 86.9518 303.736 77.6593C303.736 68.3669 311.295 60.8196 320.581 60.8196C329.869 60.8196 337.428 68.3669 337.428 77.6593C337.428 86.9518 329.869 94.5137 320.581 94.5137ZM256.898 125.72C269.829 125.72 280.345 115.212 280.368 102.282C280.368 102.262 280.391 102.249 280.391 102.227V30.1938L337.449 8.16243V61.4013C333.176 56.9659 327.208 54.1883 320.581 54.1883C307.637 54.1883 297.107 64.7168 297.107 77.6593C297.107 90.6018 307.637 101.133 320.581 101.133C333.514 101.133 344.031 90.6309 344.051 77.6885C344.052 77.6739 344.076 77.6594 344.076 77.6449V3.31993C344.076 2.22927 343.538 1.21135 342.639 0.586034C341.731 -0.0392772 340.58 -0.170156 339.57 0.222481L275.886 24.8278C274.603 25.3222 273.763 26.5438 273.763 27.9108V85.992C269.49 81.5566 263.524 78.7791 256.898 78.7791C243.953 78.7791 233.425 89.3076 233.425 102.246C233.425 115.191 243.953 125.72 256.898 125.72" />
<path d="M470.751 170.008C470.88 170.008 471.002 170.002 471.132 169.989C472.951 169.781 474.258 168.138 474.05 166.318L460.292 45.7249C460.078 43.8926 458.435 42.6128 456.623 42.8018C454.804 43.0054 453.496 44.6487 453.704 46.4665L467.463 167.069C467.658 168.759 469.094 170.008 470.751 170.008Z" />
<path d="M399.196 246.694C400.652 246.694 401.985 245.73 402.387 244.261C402.878 242.5 401.844 240.675 400.076 240.184L257.778 200.86C256.043 200.379 254.185 201.416 253.706 203.177C253.215 204.936 254.25 206.763 256.017 207.254L398.318 246.576C398.609 246.656 398.905 246.694 399.196 246.694Z" />
<path d="M312.272 255.8C310.659 256.014 308.905 257.159 308.828 258.985C308.757 260.809 310.182 262.35 312.013 262.427L394.595 265.702C394.64 265.702 394.679 265.702 394.724 265.702C396.497 265.702 397.967 264.303 398.039 262.519C398.11 260.692 396.685 259.152 394.854 259.074L312.272 255.8Z" />
<path d="M120.095 775.378C120.095 785.711 117.426 794.698 112.095 802.324C106.761 809.965 100.363 815.498 92.8995 818.937C85.4307 822.391 77.6826 824.111 69.6452 824.111C62.2621 824.111 54.0168 822.832 44.9119 820.297C35.8071 817.751 30.6781 816.484 29.5307 816.484C23.6237 816.484 20.9174 819.192 21.4089 824.604L19.9344 825.097L0 768.498L1.4775 767.75C6.72576 777.604 12.2183 786.085 17.9654 793.231C23.7051 800.364 28.8734 805.737 33.4687 809.351C38.0597 812.952 42.8586 815.738 47.8655 817.711C52.8679 819.685 56.8481 820.871 59.7987 821.271C62.7537 821.684 65.9544 821.898 69.398 821.898C80.5533 821.898 89.946 818.537 97.5763 811.804C105.205 805.084 109.019 796.951 109.019 787.445C109.019 769.391 95.4837 755.445 68.4135 745.606L48.4806 738.224C36.8294 733.959 27.1095 728.011 19.3178 720.381C11.5247 712.751 7.6288 703.361 7.6288 692.203C7.6288 679.899 12.0583 670.058 20.9174 662.67C29.7779 655.29 40.8489 651.6 54.1418 651.6C58.7328 651.6 64.6369 652.38 71.857 653.936C79.0757 655.498 83.5868 656.275 85.3943 656.275C91.2999 656.275 94.0077 653.567 93.5132 648.153L94.9907 647.659L116.401 698.358L114.925 699.091C104.258 681.373 94.0076 669.402 84.1626 663.165C74.3205 656.931 64.3111 653.816 54.1418 653.816C42.4907 653.816 33.4251 656.688 26.9466 662.428C20.4637 668.172 17.2251 675.309 17.2251 683.839C17.2251 692.537 20.2179 699.706 26.2078 705.369C32.1948 711.027 41.9148 716.319 55.3721 721.24L75.795 728.872C105.329 739.699 120.095 755.205 120.095 775.378" />
<path d="M178.906 820.911C184.319 820.911 190.471 819.352 197.361 816.231C204.253 813.112 210.32 809.351 215.571 804.911V739.456L184.564 752.25C175.704 756.031 169.798 761.071 166.846 767.391C163.893 773.698 162.417 781.871 162.417 791.871C162.417 811.231 167.912 820.911 178.906 820.911V820.911ZM230.583 823.618C225.663 823.618 221.927 822.058 219.387 818.937C216.841 815.831 215.571 811.964 215.571 807.378C202.776 818.204 189.813 823.618 176.688 823.618C166.513 823.618 158.479 820.831 152.572 815.244C146.666 809.671 143.714 802.045 143.714 792.364C143.714 782.524 147.321 774.23 154.542 767.51C161.759 760.777 171.522 754.952 183.826 750.034L215.571 737.24V718.043C215.571 711.641 214.751 707.214 213.111 704.754C211.47 702.293 208.104 701.063 203.021 701.063C194.655 701.063 187.394 703.198 181.241 707.459C175.09 711.728 168.731 717.88 162.169 725.919C159.869 728.708 157.494 730.101 155.032 730.101C153.39 730.101 151.916 729.486 150.604 728.255C149.288 727.025 148.635 725.51 148.635 723.701C148.635 718.621 154.334 713.244 165.74 707.585C177.139 701.923 189.648 699.091 203.268 699.091C222.298 699.091 231.813 706.563 231.813 721.489V810.577C231.813 816.324 233.784 819.192 237.722 819.192C241.818 819.192 245.595 816.231 249.038 810.324L250.272 811.058C245.844 819.432 239.279 823.618 230.583 823.618" />
<path d="M314.013 821.645H308.351C305.891 821.645 302.444 821.524 298.015 821.271C293.585 821.031 289.73 820.911 286.448 820.911C283.493 820.911 280.211 821.031 276.606 821.271C272.994 821.524 270.206 821.645 268.237 821.645H264.79V819.925H265.038C270.78 819.925 274.426 819.192 275.988 817.711C277.547 816.231 278.328 812.87 278.328 807.618V723.457C278.328 718.21 277.547 714.885 275.988 713.488C274.426 712.099 270.78 711.398 265.038 711.398H264.79V709.675H266.268C271.682 709.675 277.259 708.612 283.004 706.477C288.743 704.347 292.108 701.886 293.092 699.091H294.57V727.396C300.311 718.698 306.381 711.641 312.781 706.228C318.521 701.475 324.753 699.091 331.484 699.091C338.041 699.091 341.326 701.226 341.326 705.491C341.326 709.924 338.128 712.136 331.731 712.136C330.253 712.136 327.751 711.769 324.224 711.027C320.695 710.29 318.028 709.924 316.226 709.924C310.81 709.924 303.59 716.812 294.57 730.594V807.618C294.57 812.712 295.716 816.03 298.015 817.591C300.311 819.151 304.495 819.925 310.566 819.925H314.013V821.645" />
<path d="M388.082 820.911C393.496 820.911 399.647 819.352 406.537 816.231C413.428 813.112 419.495 809.351 424.747 804.911V739.456L393.738 752.25C384.879 756.031 378.974 761.071 376.023 767.391C373.07 773.698 371.592 781.871 371.592 791.871C371.592 811.231 377.088 820.911 388.082 820.911V820.911ZM439.76 823.618C434.839 823.618 431.104 822.058 428.562 818.937C426.016 815.831 424.747 811.964 424.747 807.378C411.952 818.204 398.988 823.618 385.865 823.618C375.689 823.618 367.654 820.831 361.749 815.244C355.843 809.671 352.89 802.045 352.89 792.364C352.89 782.524 356.496 774.23 363.718 767.51C370.933 760.777 380.697 754.952 393.003 750.034L424.747 737.24V718.043C424.747 711.641 423.926 707.214 422.286 704.754C420.646 702.293 417.279 701.063 412.198 701.063C403.831 701.063 396.57 703.198 390.417 707.459C384.266 711.728 377.906 717.88 371.345 725.919C369.046 728.708 366.671 730.101 364.208 730.101C362.567 730.101 361.093 729.486 359.78 728.255C358.464 727.025 357.811 725.51 357.811 723.701C357.811 718.621 363.51 713.244 374.915 707.585C386.315 701.923 398.822 699.091 412.444 699.091C431.474 699.091 440.989 706.563 440.989 721.489V810.577C440.989 816.324 442.959 819.192 446.897 819.192C450.995 819.192 454.77 816.231 458.215 810.324L459.449 811.058C455.018 819.432 448.455 823.618 439.76 823.618" />
<path d="M560.839 792.364C562.149 784.164 562.807 773.831 562.807 761.35C562.807 748.889 562.149 738.556 560.839 730.347C559.523 722.145 557.556 715.994 554.932 711.891C552.306 707.793 549.556 704.998 546.69 703.524C543.818 702.045 540.326 701.307 536.229 701.307C523.434 701.307 510.963 706.807 498.824 717.798V804.911C510.963 815.911 523.434 821.404 536.229 821.404C540.326 821.404 543.818 820.658 546.69 819.192C549.556 817.711 552.306 814.925 554.932 810.818C557.556 806.725 559.523 800.565 560.839 792.364ZM577.326 731.946C580.115 740.401 581.509 750.202 581.509 761.35C581.509 772.512 580.115 782.311 577.326 790.765C574.535 799.218 570.844 805.737 566.253 810.324C561.656 814.925 556.857 818.284 551.856 820.418C546.85 822.551 541.644 823.618 536.229 823.618C522.775 823.618 509.978 818.124 497.84 807.125C489.472 812.712 484.875 818.364 484.058 824.111H482.582V667.842C482.582 662.595 481.801 659.269 480.242 657.873C478.682 656.484 475.032 655.783 469.292 655.783H469.045V654.06H470.522C475.938 654.06 481.512 652.997 487.256 650.862C492.997 648.732 496.362 646.27 497.347 643.481H498.824V714.845C510.963 704.347 523.434 699.091 536.229 699.091C541.644 699.091 546.85 700.163 551.856 702.293C556.857 704.428 561.656 707.793 566.253 712.384C570.844 716.979 574.535 723.499 577.326 731.946" />
<path d="M682.896 741.666C682.406 714.597 673.134 701.063 655.09 701.063C645.898 701.063 638.516 704.841 632.939 712.384C627.359 719.929 623.916 729.694 622.604 741.666H682.896ZM655.09 823.618C641.307 823.618 629.248 818.085 618.913 807.004C608.577 795.924 603.408 781.458 603.408 763.578C603.408 743.884 608.657 728.215 619.16 716.568C629.654 704.921 642.047 699.091 656.318 699.091C667.965 699.091 678.26 703.153 687.203 711.276C696.144 719.395 700.285 730.268 699.632 743.884H622.357C622.191 746.343 622.111 750.034 622.111 754.952C622.111 772.845 625.68 787.858 632.815 799.99C639.954 812.137 649.428 818.204 661.24 818.204C678.793 818.204 691.017 807.871 697.908 787.19L699.385 787.685C691.67 811.644 676.906 823.618 655.09 823.618" />
<path d="M751.063 823.618C738.593 823.618 732.359 816.817 732.359 803.191V703.279H715.624V701.063H732.359V681.623C736.79 681.623 740.357 680.189 743.064 677.317C745.771 674.445 747.125 670.958 747.125 666.856V666.611H748.603V701.063H773.457V703.279H748.603V805.897C748.603 814.431 751.636 818.697 757.708 818.697C760.331 818.697 763.037 817.551 765.829 815.244C768.617 812.952 770.913 810.084 772.719 806.63L774.197 807.378C772.061 811.804 768.943 815.617 764.845 818.818C760.743 822.017 756.147 823.618 751.063 823.618" />
<path d="M890.348 716.319V807.618C890.348 812.87 891.121 816.231 892.68 817.711C894.241 819.192 897.894 819.925 903.641 819.925H903.881V821.645H900.442C898.468 821.645 895.68 821.524 892.067 821.271C888.468 821.031 885.174 820.911 882.227 820.911C879.281 820.911 875.987 821.031 872.387 821.271C868.775 821.524 865.987 821.645 864.013 821.645H860.574V819.925H860.814C866.561 819.925 870.201 819.192 871.775 817.711C873.32 816.231 874.107 812.87 874.107 807.618V715.582C874.107 707.707 871.228 703.768 865.494 703.768C862.215 703.768 855.24 705.74 844.574 709.675L817.748 720.01V807.618C817.748 812.87 818.534 816.231 820.095 817.711C821.641 819.192 825.294 819.925 831.041 819.925H831.281V821.645H827.84C826.041 821.645 823.242 821.524 819.481 821.271C815.694 821.031 812.414 820.911 809.627 820.911C806.841 820.911 803.56 821.031 799.787 821.271C796.015 821.524 793.228 821.645 791.415 821.645H787.976V819.925H788.22C793.961 819.925 797.614 819.192 799.174 817.711C800.735 816.231 801.507 812.87 801.507 807.618V667.842C801.507 662.595 800.735 659.269 799.174 657.873C797.614 656.484 793.961 655.783 788.22 655.783H787.976V654.06H789.455C794.867 654.06 800.441 652.997 806.188 650.862C811.921 648.732 815.295 646.27 816.28 643.481H817.748V717.798L843.841 707.707C858.441 701.968 868.855 699.091 875.095 699.091C885.267 699.091 890.348 704.841 890.348 716.319" />
<path d="M929.716 707.707H927.768C927.433 698.358 926.517 690.524 925.034 684.206C923.58 677.892 922.169 673.132 920.875 669.931C919.551 666.732 918.897 664.068 918.897 661.933C918.897 658.655 919.784 656.112 921.602 654.303C923.405 652.503 925.688 651.6 928.495 651.6C931.447 651.6 933.861 652.503 935.751 654.303C937.642 656.112 938.572 658.655 938.572 661.933C938.572 664.068 937.918 666.732 936.609 669.931C935.3 673.132 933.904 677.892 932.421 684.206C930.952 690.524 930.051 698.358 929.716 707.707Z" />
<path d="M1004.54 823.618C999.94 823.618 994.443 822.791 988.045 821.151C981.646 819.51 976.877 818.697 973.779 818.697C971.961 818.697 970.493 819.151 969.344 820.044C968.195 820.951 967.7 822.138 967.86 823.618L966.392 824.111L954.074 781.778L955.558 781.285C968.355 808.191 984.758 821.645 1004.77 821.645C1014.45 821.645 1021.93 819.272 1027.18 814.511C1032.43 809.751 1035.06 803.764 1035.06 796.551C1035.06 785.231 1025.85 776.045 1007.49 768.991L987.55 761.35C969.998 754.632 961.215 743.72 961.215 728.628C961.215 719.929 964.094 712.836 969.838 707.337C975.568 701.841 983.377 699.091 993.207 699.091C997.483 699.091 1002.44 699.796 1008.11 701.184C1013.76 702.583 1017.74 703.279 1020.04 703.279C1022 703.279 1023.56 702.868 1024.71 702.045C1025.85 701.226 1026.35 699.996 1026.19 698.358L1027.67 697.865L1039.97 739.206L1038.49 739.699C1027.02 713.945 1011.92 701.063 993.207 701.063C984.846 701.063 978.607 702.951 974.506 706.721C970.405 710.498 968.355 714.926 968.355 720.01C968.355 725.266 970.405 729.938 974.506 734.04C978.607 738.143 985.413 742.078 994.938 745.85L1014.63 753.485C1024.31 757.258 1031.53 761.765 1036.28 767.017C1041.04 772.272 1043.42 778.832 1043.42 786.697C1043.42 798.191 1039.73 807.218 1032.34 813.778C1024.97 820.338 1015.69 823.618 1004.54 823.618" />
<path d="M306.34 963.684L310.041 957.297C313.38 959.538 317.026 961.284 320.972 962.538C324.921 963.791 328.697 964.418 332.302 964.418C336.63 964.418 340.123 963.537 342.78 961.764C345.437 960.005 346.766 957.738 346.766 954.964C346.766 952.191 345.55 950.138 343.122 948.791C340.692 947.445 336.858 946.684 331.62 946.537C322.776 946.418 316.703 945.404 313.4 943.457C310.098 941.525 308.447 938.324 308.447 933.845C308.447 929.671 310.259 926.311 313.883 923.764C317.507 921.218 322.377 919.951 328.488 919.951C332.664 919.951 336.717 920.537 340.644 921.711C344.574 922.884 348.36 924.631 352.004 926.95L348.19 933.272C345.152 931.217 341.888 929.631 338.397 928.511C334.902 927.391 331.562 926.831 328.374 926.831C324.692 926.831 321.732 927.484 319.492 928.778C317.253 930.058 316.133 931.751 316.133 933.845C316.133 936.004 317.261 937.537 319.521 938.458C321.78 939.364 325.699 939.817 331.279 939.817C339.022 939.817 344.868 941.125 348.816 943.751C352.765 946.364 354.736 950.257 354.736 955.418C354.736 960.018 352.734 963.831 348.729 966.871C344.724 969.898 339.534 971.417 333.157 971.417C328.45 971.417 323.77 970.751 319.121 969.405C314.471 968.044 310.211 966.15 306.34 963.684" />
<path d="M403.112 969.885V928.031H382.615V921.257H431.238V928.031H410.684V969.885H403.112" />
<path d="M462.191 921.378H469.821V952.511C469.821 957.178 470.921 960.338 473.124 961.964C475.326 963.604 479.691 964.418 486.219 964.418C492.786 964.418 497.171 963.604 499.373 961.964C501.573 960.338 502.675 957.178 502.675 952.511V921.378H510.247V954.511C510.247 960.47 508.358 964.777 504.583 967.431C500.803 970.084 494.646 971.417 486.106 971.417C477.603 971.417 471.491 970.111 467.771 967.485C464.051 964.87 462.191 960.551 462.191 954.511V921.378Z" />
<path d="M572.057 928.258H557.993V962.871H572.057C577.827 962.871 582.364 961.338 585.665 958.245C588.968 955.137 590.62 950.938 590.62 945.631C590.62 940.498 588.911 936.324 585.494 933.097C582.078 929.87 577.6 928.258 572.057 928.258V928.258ZM571.944 921.257C579.878 921.257 586.273 923.524 591.132 928.057C595.99 932.591 598.42 938.484 598.42 945.737C598.42 953.071 596.037 958.924 591.274 963.312C586.509 967.684 580.067 969.885 571.944 969.885H550.363V921.257H571.944" />
<path d="M633.87 969.885H641.613V921.138H633.87V969.885Z" />
<path d="M707.241 964.298C713.731 964.298 719.027 962.551 723.126 959.03C727.226 955.524 729.276 951.057 729.276 945.631C729.276 940.232 727.216 935.777 723.097 932.244C718.979 928.711 713.693 926.95 707.241 926.95C700.788 926.95 695.52 928.712 691.441 932.218C687.359 935.724 685.32 940.204 685.32 945.631C685.32 951.057 687.359 955.524 691.441 959.03C695.52 962.551 700.788 964.298 707.241 964.298V964.298ZM707.241 971.417C698.587 971.417 691.47 968.977 685.888 964.071C680.309 959.177 677.518 953.03 677.518 945.631C677.518 938.191 680.298 932.045 685.859 927.205C691.422 922.364 698.547 919.951 707.241 919.951C716.01 919.951 723.173 922.364 728.735 927.177C734.295 932.004 737.075 938.151 737.075 945.631C737.075 953.071 734.286 959.231 728.706 964.098C723.126 968.977 715.972 971.417 707.241 971.417" />
</svg>

