<?xml version="1.0" standalone="no"?>
<!DOCTYPE svg PUBLIC "-//W3C//DTD SVG 20010904//EN"
 "http://www.w3.org/TR/2001/REC-SVG-20010904/DTD/svg10.dtd">
<svg version="1.0" xmlns="http://www.w3.org/2000/svg"
 width="732.000000pt" height="732.000000pt" viewBox="0 0 732.000000 732.000000"
 preserveAspectRatio="xMidYMid meet">
<metadata>
Created by potrace 1.14, written by Peter Selinger 2001-2017
</metadata>
<g transform="translate(0.000000,732.000000) scale(0.100000,-0.100000)"
fill="#000000" stroke="none">
<path d="M0 3660 l0 -3660 3660 0 3660 0 0 3660 0 3660 -3660 0 -3660 0 0
-3660z m1858 2164 c175 -25 317 -81 609 -239 110 -59 159 -69 200 -40 24 17
57 97 68 165 12 83 9 80 86 80 67 0 69 -1 65 -22 -10 -49 -19 -346 -25 -833
l-6 -510 -67 -3 -67 -3 -6 48 c-31 243 -68 385 -147 573 -117 277 -303 484
-531 591 -112 51 -177 64 -342 64 -129 0 -160 -3 -225 -23 -113 -36 -187 -80
-266 -157 -115 -113 -164 -242 -164 -430 0 -279 125 -489 420 -707 63 -47 286
-201 495 -343 458 -311 629 -439 755 -565 170 -171 296 -380 346 -575 46 -183
44 -418 -7 -611 -89 -341 -367 -608 -776 -744 -225 -74 -400 -100 -690 -100
-392 0 -617 52 -941 216 -187 95 -225 103 -268 57 -24 -25 -56 -117 -69 -195
l-6 -38 -71 0 -71 0 7 42 c6 35 25 1133 26 1481 l0 97 65 0 c44 0 67 -4 69
-12 2 -7 9 -71 15 -143 15 -164 60 -392 107 -536 171 -529 423 -766 861 -810
199 -21 391 14 543 98 96 53 199 161 242 253 52 110 63 166 63 325 -1 115 -5
154 -23 220 -84 295 -264 476 -888 896 -603 404 -752 535 -912 802 -199 332
-182 863 38 1157 211 284 548 450 996 490 126 11 359 3 492 -16z m2827 -69
c1114 -1 1095 0 1340 -57 412 -95 718 -330 811 -622 53 -170 53 -341 -2 -506
-85 -255 -329 -506 -627 -645 -111 -51 -308 -115 -434 -141 -51 -10 -93 -21
-93 -24 0 -3 68 -14 152 -24 380 -43 692 -140 902 -280 153 -102 295 -256 366
-397 142 -281 108 -686 -81 -968 -170 -254 -473 -432 -879 -514 -272 -56 -229
-55 -1620 -46 -399 2 -782 0 -852 -4 l-128 -9 0 60 0 60 63 7 c286 30 351 84
377 313 13 118 13 3256 0 3374 -13 113 -41 188 -85 227 -39 34 -132 66 -220
76 -33 3 -77 8 -97 11 l-38 6 0 60 0 61 58 -9 c31 -4 521 -9 1087 -9z"/>
<path d="M5188 5639 c-132 -19 -192 -81 -225 -232 -13 -60 -16 -200 -20 -849
l-5 -778 192 0 c218 0 293 12 406 66 183 87 304 303 349 624 17 128 20 414 5
540 -27 218 -99 400 -194 496 -116 116 -299 164 -508 133z"/>
<path d="M4943 2813 c4 -741 7 -867 20 -927 44 -188 137 -235 442 -223 242 9
385 65 525 206 126 126 194 272 237 505 25 130 25 510 1 617 -45 201 -106 319
-228 441 -73 72 -103 94 -181 131 -169 82 -313 107 -616 107 l-205 0 5 -857z"/>
</g>
</svg>
